<mxfile host="app.diagrams.net" modified="2022-12-10T12:55:47.414Z" agent="5.0 (Windows NT 10.0; Win64; x64) AppleWebKit/537.36 (KHTML, like Gecko) Chrome/107.0.0.0 Safari/537.36" etag="2q3vbtJdcTwHdvjDu01K" version="20.6.2" type="github">
  <diagram id="C5RBs43oDa-KdzZeNtuy" name="Page-1">
    <mxGraphModel dx="1038" dy="547" grid="1" gridSize="10" guides="1" tooltips="1" connect="1" arrows="1" fold="1" page="1" pageScale="1" pageWidth="827" pageHeight="1169" math="0" shadow="0">
      <root>
        <mxCell id="WIyWlLk6GJQsqaUBKTNV-0" />
        <mxCell id="WIyWlLk6GJQsqaUBKTNV-1" parent="WIyWlLk6GJQsqaUBKTNV-0" />
        <mxCell id="vQqT6XXnJxfDfkthh26Z-4" value="" style="edgeStyle=orthogonalEdgeStyle;rounded=0;orthogonalLoop=1;jettySize=auto;html=1;" edge="1" parent="WIyWlLk6GJQsqaUBKTNV-1" target="vQqT6XXnJxfDfkthh26Z-3">
          <mxGeometry relative="1" as="geometry">
            <mxPoint x="410" y="110" as="sourcePoint" />
          </mxGeometry>
        </mxCell>
        <mxCell id="vQqT6XXnJxfDfkthh26Z-6" value="" style="edgeStyle=orthogonalEdgeStyle;rounded=0;orthogonalLoop=1;jettySize=auto;html=1;" edge="1" parent="WIyWlLk6GJQsqaUBKTNV-1" source="vQqT6XXnJxfDfkthh26Z-3" target="vQqT6XXnJxfDfkthh26Z-5">
          <mxGeometry relative="1" as="geometry" />
        </mxCell>
        <mxCell id="vQqT6XXnJxfDfkthh26Z-3" value="Объявление А, В, С" style="rounded=1;whiteSpace=wrap;html=1;" vertex="1" parent="WIyWlLk6GJQsqaUBKTNV-1">
          <mxGeometry x="350" y="150" width="120" height="60" as="geometry" />
        </mxCell>
        <mxCell id="vQqT6XXnJxfDfkthh26Z-5" value="А &amp;gt; B" style="rhombus;whiteSpace=wrap;html=1;" vertex="1" parent="WIyWlLk6GJQsqaUBKTNV-1">
          <mxGeometry x="370" y="240" width="80" height="80" as="geometry" />
        </mxCell>
        <mxCell id="vQqT6XXnJxfDfkthh26Z-7" value="А &amp;gt; C" style="rhombus;whiteSpace=wrap;html=1;" vertex="1" parent="WIyWlLk6GJQsqaUBKTNV-1">
          <mxGeometry x="280" y="320" width="80" height="80" as="geometry" />
        </mxCell>
        <mxCell id="vQqT6XXnJxfDfkthh26Z-8" value="" style="endArrow=classic;html=1;rounded=0;exitX=0;exitY=0.5;exitDx=0;exitDy=0;entryX=0.5;entryY=0;entryDx=0;entryDy=0;" edge="1" parent="WIyWlLk6GJQsqaUBKTNV-1" source="vQqT6XXnJxfDfkthh26Z-5" target="vQqT6XXnJxfDfkthh26Z-7">
          <mxGeometry relative="1" as="geometry">
            <mxPoint x="330" y="310" as="sourcePoint" />
            <mxPoint x="490" y="310" as="targetPoint" />
            <Array as="points">
              <mxPoint x="320" y="280" />
            </Array>
          </mxGeometry>
        </mxCell>
        <mxCell id="vQqT6XXnJxfDfkthh26Z-9" value="TRUE" style="edgeLabel;resizable=0;html=1;align=center;verticalAlign=middle;" connectable="0" vertex="1" parent="vQqT6XXnJxfDfkthh26Z-8">
          <mxGeometry relative="1" as="geometry" />
        </mxCell>
        <mxCell id="vQqT6XXnJxfDfkthh26Z-12" value="Напечатать А" style="rounded=1;whiteSpace=wrap;html=1;" vertex="1" parent="WIyWlLk6GJQsqaUBKTNV-1">
          <mxGeometry x="200" y="430" width="120" height="60" as="geometry" />
        </mxCell>
        <mxCell id="vQqT6XXnJxfDfkthh26Z-13" value="Напечатать С" style="rounded=1;whiteSpace=wrap;html=1;" vertex="1" parent="WIyWlLk6GJQsqaUBKTNV-1">
          <mxGeometry x="350" y="430" width="120" height="60" as="geometry" />
        </mxCell>
        <mxCell id="vQqT6XXnJxfDfkthh26Z-14" value="Напечатать В" style="rounded=1;whiteSpace=wrap;html=1;" vertex="1" parent="WIyWlLk6GJQsqaUBKTNV-1">
          <mxGeometry x="500" y="430" width="120" height="60" as="geometry" />
        </mxCell>
        <mxCell id="vQqT6XXnJxfDfkthh26Z-15" value="С &amp;gt; B" style="rhombus;whiteSpace=wrap;html=1;" vertex="1" parent="WIyWlLk6GJQsqaUBKTNV-1">
          <mxGeometry x="460" y="320" width="80" height="80" as="geometry" />
        </mxCell>
        <mxCell id="vQqT6XXnJxfDfkthh26Z-16" value="" style="endArrow=classic;html=1;rounded=0;exitX=1;exitY=0.5;exitDx=0;exitDy=0;entryX=0.5;entryY=0;entryDx=0;entryDy=0;" edge="1" parent="WIyWlLk6GJQsqaUBKTNV-1" source="vQqT6XXnJxfDfkthh26Z-5" target="vQqT6XXnJxfDfkthh26Z-15">
          <mxGeometry relative="1" as="geometry">
            <mxPoint x="360" y="310" as="sourcePoint" />
            <mxPoint x="460" y="310" as="targetPoint" />
            <Array as="points">
              <mxPoint x="500" y="280" />
            </Array>
          </mxGeometry>
        </mxCell>
        <mxCell id="vQqT6XXnJxfDfkthh26Z-17" value="FALSE" style="edgeLabel;resizable=0;html=1;align=center;verticalAlign=middle;" connectable="0" vertex="1" parent="vQqT6XXnJxfDfkthh26Z-16">
          <mxGeometry relative="1" as="geometry" />
        </mxCell>
        <mxCell id="vQqT6XXnJxfDfkthh26Z-18" value="" style="endArrow=classic;html=1;rounded=0;entryX=0.41;entryY=0.017;entryDx=0;entryDy=0;entryPerimeter=0;" edge="1" parent="WIyWlLk6GJQsqaUBKTNV-1" target="vQqT6XXnJxfDfkthh26Z-12">
          <mxGeometry relative="1" as="geometry">
            <mxPoint x="280" y="360" as="sourcePoint" />
            <mxPoint x="230" y="398" as="targetPoint" />
            <Array as="points">
              <mxPoint x="250" y="360" />
            </Array>
          </mxGeometry>
        </mxCell>
        <mxCell id="vQqT6XXnJxfDfkthh26Z-19" value="TRUE" style="edgeLabel;resizable=0;html=1;align=center;verticalAlign=middle;" connectable="0" vertex="1" parent="vQqT6XXnJxfDfkthh26Z-18">
          <mxGeometry relative="1" as="geometry" />
        </mxCell>
        <mxCell id="vQqT6XXnJxfDfkthh26Z-20" value="" style="endArrow=classic;html=1;rounded=0;exitX=1;exitY=0.5;exitDx=0;exitDy=0;entryX=0.34;entryY=-0.023;entryDx=0;entryDy=0;entryPerimeter=0;" edge="1" parent="WIyWlLk6GJQsqaUBKTNV-1" target="vQqT6XXnJxfDfkthh26Z-13">
          <mxGeometry relative="1" as="geometry">
            <mxPoint x="360" y="360" as="sourcePoint" />
            <mxPoint x="410" y="400" as="targetPoint" />
            <Array as="points">
              <mxPoint x="390" y="360" />
            </Array>
          </mxGeometry>
        </mxCell>
        <mxCell id="vQqT6XXnJxfDfkthh26Z-21" value="FALSE" style="edgeLabel;resizable=0;html=1;align=center;verticalAlign=middle;" connectable="0" vertex="1" parent="vQqT6XXnJxfDfkthh26Z-20">
          <mxGeometry relative="1" as="geometry" />
        </mxCell>
        <mxCell id="vQqT6XXnJxfDfkthh26Z-22" value="" style="endArrow=classic;html=1;rounded=0;entryX=0.41;entryY=0.017;entryDx=0;entryDy=0;entryPerimeter=0;" edge="1" parent="WIyWlLk6GJQsqaUBKTNV-1">
          <mxGeometry relative="1" as="geometry">
            <mxPoint x="460" y="358.98" as="sourcePoint" />
            <mxPoint x="429.20000000000005" y="430" as="targetPoint" />
            <Array as="points">
              <mxPoint x="430" y="358.98" />
            </Array>
          </mxGeometry>
        </mxCell>
        <mxCell id="vQqT6XXnJxfDfkthh26Z-23" value="TRUE" style="edgeLabel;resizable=0;html=1;align=center;verticalAlign=middle;" connectable="0" vertex="1" parent="vQqT6XXnJxfDfkthh26Z-22">
          <mxGeometry relative="1" as="geometry" />
        </mxCell>
        <mxCell id="vQqT6XXnJxfDfkthh26Z-24" value="" style="endArrow=classic;html=1;rounded=0;exitX=1;exitY=0.5;exitDx=0;exitDy=0;entryX=0.34;entryY=-0.023;entryDx=0;entryDy=0;entryPerimeter=0;" edge="1" parent="WIyWlLk6GJQsqaUBKTNV-1">
          <mxGeometry relative="1" as="geometry">
            <mxPoint x="540" y="361.38" as="sourcePoint" />
            <mxPoint x="570.8" y="430" as="targetPoint" />
            <Array as="points">
              <mxPoint x="570" y="361.38" />
            </Array>
          </mxGeometry>
        </mxCell>
        <mxCell id="vQqT6XXnJxfDfkthh26Z-25" value="FALSE" style="edgeLabel;resizable=0;html=1;align=center;verticalAlign=middle;" connectable="0" vertex="1" parent="vQqT6XXnJxfDfkthh26Z-24">
          <mxGeometry relative="1" as="geometry" />
        </mxCell>
        <mxCell id="vQqT6XXnJxfDfkthh26Z-26" value="Начало" style="ellipse;whiteSpace=wrap;html=1;aspect=fixed;" vertex="1" parent="WIyWlLk6GJQsqaUBKTNV-1">
          <mxGeometry x="370" y="30" width="80" height="80" as="geometry" />
        </mxCell>
        <mxCell id="vQqT6XXnJxfDfkthh26Z-27" value="Конец" style="ellipse;whiteSpace=wrap;html=1;aspect=fixed;" vertex="1" parent="WIyWlLk6GJQsqaUBKTNV-1">
          <mxGeometry x="370" y="545" width="80" height="80" as="geometry" />
        </mxCell>
        <mxCell id="vQqT6XXnJxfDfkthh26Z-32" value="" style="endArrow=none;html=1;rounded=0;" edge="1" parent="WIyWlLk6GJQsqaUBKTNV-1">
          <mxGeometry width="50" height="50" relative="1" as="geometry">
            <mxPoint x="259" y="520" as="sourcePoint" />
            <mxPoint x="569" y="520" as="targetPoint" />
          </mxGeometry>
        </mxCell>
        <mxCell id="vQqT6XXnJxfDfkthh26Z-33" value="" style="endArrow=none;html=1;rounded=0;entryX=0.5;entryY=1;entryDx=0;entryDy=0;" edge="1" parent="WIyWlLk6GJQsqaUBKTNV-1" target="vQqT6XXnJxfDfkthh26Z-12">
          <mxGeometry width="50" height="50" relative="1" as="geometry">
            <mxPoint x="260" y="520" as="sourcePoint" />
            <mxPoint x="440" y="490" as="targetPoint" />
          </mxGeometry>
        </mxCell>
        <mxCell id="vQqT6XXnJxfDfkthh26Z-34" value="" style="endArrow=none;html=1;rounded=0;entryX=0.5;entryY=1;entryDx=0;entryDy=0;" edge="1" parent="WIyWlLk6GJQsqaUBKTNV-1">
          <mxGeometry width="50" height="50" relative="1" as="geometry">
            <mxPoint x="409.5" y="520" as="sourcePoint" />
            <mxPoint x="409.5" y="490" as="targetPoint" />
          </mxGeometry>
        </mxCell>
        <mxCell id="vQqT6XXnJxfDfkthh26Z-35" value="" style="endArrow=none;html=1;rounded=0;entryX=0.5;entryY=1;entryDx=0;entryDy=0;" edge="1" parent="WIyWlLk6GJQsqaUBKTNV-1">
          <mxGeometry width="50" height="50" relative="1" as="geometry">
            <mxPoint x="570" y="520" as="sourcePoint" />
            <mxPoint x="570" y="490" as="targetPoint" />
          </mxGeometry>
        </mxCell>
        <mxCell id="vQqT6XXnJxfDfkthh26Z-36" value="" style="endArrow=classic;html=1;rounded=0;entryX=0.5;entryY=0;entryDx=0;entryDy=0;" edge="1" parent="WIyWlLk6GJQsqaUBKTNV-1">
          <mxGeometry width="50" height="50" relative="1" as="geometry">
            <mxPoint x="409" y="520" as="sourcePoint" />
            <mxPoint x="409" y="545" as="targetPoint" />
          </mxGeometry>
        </mxCell>
      </root>
    </mxGraphModel>
  </diagram>
</mxfile>
